<svg xmlns="http://www.w3.org/2000/svg" width="4142" height="2100" viewBox="0 0 4142 2100" version="1.1"><path d="M 370.234 841.250 C 352.928 858.946, 350.128 862.179, 349.449 865.250 C 348.045 871.600, 349.253 873.278, 371.813 896.331 C 377.105 901.738, 382.207 906.576, 383.152 907.081 C 384.096 907.587, 386.958 908, 389.511 908 C 393.309 908, 394.686 907.468, 397.077 905.077 C 399.722 902.432, 400 901.521, 400 895.498 L 400 888.842 390.500 879.525 C 385.275 874.401, 381 869.811, 381 869.325 C 381 868.839, 385.275 863.600, 390.500 857.682 C 399.428 847.571, 400 846.658, 400 842.526 C 400 840.108, 399.561 836.976, 399.025 835.566 C 397.608 831.840, 392.358 829.008, 386.857 829.004 C 382.237 829, 382.157 829.059, 370.234 841.250 M 419.923 858.923 C 417.237 861.609, 417 862.426, 417 869 C 417 875.574, 417.237 876.391, 419.923 879.077 L 422.846 882 573.500 882 L 724.154 882 727.077 879.077 C 729.763 876.391, 730 875.574, 730 869 C 730 862.426, 729.763 861.609, 727.077 858.923 L 724.154 856 573.500 856 L 422.846 856 419.923 858.923 M 419.923 929.923 C 417.237 932.609, 417 933.426, 417 940 C 417 946.574, 417.237 947.391, 419.923 950.077 L 422.846 953 495.500 953 L 568.154 953 571.077 950.077 C 573.763 947.391, 574 946.574, 574 940 C 574 933.426, 573.763 932.609, 571.077 929.923 L 568.154 927 495.500 927 L 422.846 927 419.923 929.923 M 419.923 1000.923 C 417.237 1003.609, 417 1004.426, 417 1011 C 417 1017.574, 417.237 1018.391, 419.923 1021.077 L 422.846 1024 620.500 1024 L 818.154 1024 821.077 1021.077 C 823.763 1018.391, 824 1017.574, 824 1011 C 824 1004.426, 823.763 1003.609, 821.077 1000.923 L 818.154 998 620.500 998 L 422.846 998 419.923 1000.923 M 840.500 1043.403 C 835.666 1045.536, 833.707 1048.487, 833.219 1054.368 L 832.777 1059.705 842.922 1071.458 L 853.067 1083.212 843.033 1093.210 L 833 1103.209 833 1108.654 C 833 1117.571, 836.677 1122, 844.079 1122 C 847.797 1122, 853.515 1119.676, 854.648 1117.704 C 855.117 1116.889, 861.668 1109.868, 869.206 1102.102 C 889.112 1081.597, 889.135 1081.940, 866.190 1058.250 C 851.715 1043.305, 850.172 1042.003, 846.976 1042.039 C 845.064 1042.061, 842.150 1042.674, 840.500 1043.403 M 419.923 1071.923 C 417.237 1074.609, 417 1075.426, 417 1082 C 417 1088.574, 417.237 1089.391, 419.923 1092.077 L 422.846 1095 533.500 1095 L 644.154 1095 647.077 1092.077 C 649.763 1089.391, 650 1088.574, 650 1082 C 650 1075.426, 649.763 1074.609, 647.077 1071.923 L 644.154 1069 533.500 1069 L 422.846 1069 419.923 1071.923 M 683.923 1071.923 C 681.237 1074.609, 681 1075.426, 681 1082 C 681 1088.574, 681.237 1089.391, 683.923 1092.077 L 686.846 1095 752.500 1095 L 818.154 1095 821.077 1092.077 C 823.763 1089.391, 824 1088.574, 824 1082 C 824 1075.426, 823.763 1074.609, 821.077 1071.923 L 818.154 1069 752.500 1069 L 686.846 1069 683.923 1071.923 M 367.700 1128.250 C 359.554 1136.638, 352.016 1144.850, 350.948 1146.500 C 348.756 1149.889, 348.483 1154.473, 350.285 1157.620 C 352.269 1161.084, 381.168 1190.919, 383.147 1191.547 C 385.714 1192.361, 392.289 1192.360, 394.858 1191.545 C 398.026 1190.540, 400 1185.881, 400 1179.410 L 400 1173.720 390.500 1164.050 C 385.275 1158.732, 381 1154.038, 381 1153.620 C 381 1152.950, 385.853 1147.246, 396.745 1135.115 C 399.490 1132.057, 399.991 1130.730, 399.991 1126.500 C 399.993 1119.793, 397.312 1115.458, 392.302 1114.067 C 383.789 1111.703, 383.747 1111.727, 367.700 1128.250 M 419.923 1143.923 C 417.237 1146.609, 417 1147.426, 417 1154 C 417 1160.574, 417.237 1161.391, 419.923 1164.077 L 422.846 1167 503 1167 L 583.154 1167 586.077 1164.077 C 588.763 1161.391, 589 1160.574, 589 1154 C 589 1147.426, 588.763 1146.609, 586.077 1143.923 L 583.154 1141 503 1141 L 422.846 1141 419.923 1143.923 M 617.923 1143.923 C 615.237 1146.609, 615 1147.426, 615 1154 C 615 1160.574, 615.237 1161.391, 617.923 1164.077 L 620.846 1167 719.500 1167 L 818.154 1167 821.077 1164.077 C 823.763 1161.391, 824 1160.574, 824 1154 C 824 1147.426, 823.763 1146.609, 821.077 1143.923 L 818.154 1141 719.500 1141 L 620.846 1141 617.923 1143.923 M 732.225 1189.004 C 728.394 1191.340, 727 1194.427, 727 1200.574 C 727 1204.724, 727.544 1205.627, 735.235 1214.259 C 739.764 1219.341, 744.039 1224.095, 744.735 1224.821 C 745.431 1225.548, 746 1226.704, 746 1227.390 C 746 1228.077, 741.837 1232.657, 736.750 1237.569 L 727.500 1246.500 727.500 1253.837 C 727.500 1260.635, 727.706 1261.350, 730.306 1263.587 C 735.106 1267.716, 745.527 1266.366, 749.189 1261.142 C 749.910 1260.113, 756.425 1253.145, 763.666 1245.656 C 782.810 1225.858, 782.817 1226.053, 762.240 1204.644 C 754.235 1196.315, 746.996 1188.938, 746.152 1188.250 C 743.765 1186.305, 735.959 1186.728, 732.225 1189.004 M 419.923 1215.923 C 417.237 1218.609, 417 1219.426, 417 1226 C 417 1232.574, 417.237 1233.391, 419.923 1236.077 L 422.846 1239 568.500 1239 L 714.154 1239 717.077 1236.077 C 719.763 1233.391, 720 1232.574, 720 1226 C 720 1219.426, 719.763 1218.609, 717.077 1215.923 L 714.154 1213 568.500 1213 L 422.846 1213 419.923 1215.923" stroke="none" fill="#5c2c84" fill-rule="evenodd"/><path d="M 3405.628 826.250 C 3404.822 828.038, 3402.776 832.569, 3401.081 836.320 C 3399.386 840.071, 3398 843.302, 3398 843.500 C 3398 843.698, 3396.614 846.929, 3394.919 850.680 C 3393.224 854.431, 3391.238 858.850, 3390.506 860.500 C 3385.353 872.102, 3375.388 894.399, 3373.401 898.774 C 3372.083 901.675, 3369.826 906.850, 3368.385 910.274 C 3366.944 913.698, 3364.243 919.795, 3362.382 923.823 C 3360.058 928.856, 3359 932.616, 3359 935.846 C 3359 944.359, 3365.948 959.614, 3384.113 990.983 C 3388.726 998.948, 3421.750 1063.748, 3457.500 1134.983 L 3522.500 1264.500 3574.067 1264.759 L 3625.635 1265.018 3628.040 1262.457 L 3630.446 1259.896 3521.223 1041.448 C 3420.445 839.890, 3411.811 823, 3409.547 823 C 3407.747 823, 3406.704 823.865, 3405.628 826.250 M 3755.645 828.689 C 3755.476 828.858, 3741.126 829.078, 3723.755 829.178 C 3696.239 829.338, 3691.893 829.572, 3690.002 830.999 L 3687.831 832.636 3686.957 912.068 C 3686.477 955.756, 3686.028 1025.250, 3685.959 1066.500 C 3685.891 1107.750, 3685.407 1148.925, 3684.885 1158 C 3684.362 1167.075, 3683.683 1188.225, 3683.376 1205 C 3682.794 1236.869, 3683.711 1249.254, 3687.668 1262.911 L 3689.236 1268.323 3734.989 1267.662 C 3760.154 1267.299, 3782.100 1266.730, 3783.758 1266.398 C 3787.126 1265.725, 3788.036 1264.205, 3790.715 1254.780 C 3792.390 1248.885, 3792.480 1241.444, 3792.178 1133.500 C 3791.656 947.197, 3790.404 833.868, 3788.857 832.912 C 3786.082 831.196, 3774.083 829.077, 3765.226 828.737 C 3760.125 828.542, 3755.813 828.520, 3755.645 828.689 M 1162.872 830.653 C 1161.720 832.041, 1161.455 866.972, 1161.220 1048.107 L 1160.939 1263.907 1165.220 1265.003 C 1167.574 1265.605, 1170.175 1266.336, 1171 1266.626 C 1182.895 1270.807, 1255.508 1268.892, 1260.125 1264.275 C 1262.314 1262.086, 1264.982 1249.104, 1266.039 1235.500 C 1267.125 1221.533, 1266.347 1190.461, 1264.024 1155 C 1263.501 1147.025, 1262.864 1071.480, 1262.608 987.121 C 1262.319 891.901, 1261.782 833.382, 1261.190 832.790 C 1260.172 831.772, 1200.562 829.082, 1177.872 829.031 C 1166.392 829.005, 1164.029 829.260, 1162.872 830.653 M 1372.062 830.425 C 1370.917 831.805, 1370.999 832.603, 1372.606 835.695 C 1375.433 841.134, 1385.465 851.508, 1394.500 858.335 C 1417.512 875.725, 1420.797 878.821, 1431.688 893.389 C 1442.144 907.376, 1456.405 928.489, 1469.453 949.301 C 1476.057 959.834, 1479.840 963.835, 1481.956 962.527 C 1482.664 962.090, 1483 941.446, 1483 898.467 L 1483 835.051 1480.250 833.643 C 1474.483 830.691, 1461.418 829.786, 1417.456 829.293 C 1377.627 828.846, 1373.283 828.954, 1372.062 830.425 M 2051.456 954.577 C 2043.869 960.468, 2033.660 966.079, 2003 981.210 C 1988.975 988.132, 1974.237 996.103, 1970.250 998.924 L 1963 1004.052 1963 1133.526 L 1963 1263 2011.515 1263 L 2060.029 1263 2061.881 1259.956 C 2065.067 1254.716, 2066.196 1244.046, 2065.578 1225 C 2065.266 1215.375, 2064.760 1150.310, 2064.453 1080.410 L 2063.895 953.321 2060.543 951.722 L 2057.191 950.123 2051.456 954.577 M 2164.401 956.321 C 2161.597 958.620, 2152.857 965, 2144.978 970.500 C 2121.674 986.768, 2110.948 998.189, 2103.187 1015 C 2101.537 1018.575, 2099.741 1022.898, 2099.196 1024.606 C 2097.419 1030.173, 2098.169 1030.398, 2114.399 1029.176 C 2131.326 1027.901, 2128.450 1027.129, 2154.011 1039.807 C 2173.645 1049.545, 2173.893 1049.642, 2183.626 1051.489 C 2190.970 1052.882, 2192.397 1052.879, 2198.515 1051.460 C 2215.405 1047.543, 2229.056 1035.794, 2234.662 1020.350 C 2240.217 1005.045, 2235.599 987.444, 2222.224 972.949 C 2210.041 959.743, 2193.024 951.914, 2176.846 952.071 C 2169.747 952.140, 2169.329 952.283, 2164.401 956.321 M 1804.500 959.461 C 1778.142 963.409, 1767.344 968.636, 1761.227 980.410 C 1758.863 984.962, 1758.582 986.610, 1758.572 996 C 1758.562 1005.159, 1758.967 1007.713, 1761.741 1016 C 1763.490 1021.225, 1768.216 1032.025, 1772.242 1040 C 1783.044 1061.396, 1795 1087.955, 1795 1090.557 C 1795 1091.216, 1795.657 1092.300, 1796.460 1092.967 C 1797.650 1093.954, 1799.482 1093.160, 1806.373 1088.668 C 1818.022 1081.075, 1829.122 1069.713, 1840.153 1054.090 C 1842.713 1050.466, 1845.525 1046.713, 1846.403 1045.750 C 1847.282 1044.787, 1848 1043.550, 1848 1043 C 1848 1042.450, 1848.402 1042, 1848.893 1042 C 1849.384 1042, 1850.054 1041.302, 1850.382 1040.448 C 1850.723 1039.558, 1850.555 1039.157, 1849.989 1039.507 C 1848.555 1040.393, 1848.702 1039.858, 1851.817 1032.843 C 1859.226 1016.160, 1860.493 995.262, 1854.774 984.035 C 1850.754 976.142, 1838.296 964.099, 1829.136 959.251 C 1826.265 957.732, 1815.428 957.824, 1804.500 959.461 M 2372 958.936 C 2371.175 959.466, 2366.675 961.550, 2362 963.567 C 2300.050 990.301, 2271.145 1017.363, 2255.552 1063.226 C 2249.072 1082.287, 2247.094 1094.251, 2247.077 1114.500 C 2247.055 1139.416, 2251.380 1157.861, 2262.472 1180.158 C 2282.837 1221.098, 2319.214 1252.031, 2365 1267.343 C 2385.193 1274.096, 2400.401 1276.496, 2423 1276.496 C 2455.771 1276.496, 2473.067 1271.974, 2504.213 1255.262 C 2510.971 1251.636, 2519.799 1247.101, 2523.832 1245.184 C 2529.429 1242.524, 2531.750 1240.771, 2533.641 1237.776 C 2538.156 1230.624, 2536.682 1229.670, 2518.500 1227.976 C 2512.450 1227.413, 2499.625 1226.506, 2490 1225.962 C 2464.614 1224.526, 2453.445 1221.766, 2435.321 1212.451 C 2421.346 1205.269, 2412.940 1199.033, 2400.403 1186.547 C 2376.189 1162.433, 2361.432 1132.783, 2356.792 1098.923 C 2354.463 1081.934, 2355.563 1051.180, 2358.971 1038.013 C 2359.471 1036.081, 2360.605 1031.575, 2361.490 1028 C 2363.383 1020.357, 2368.321 1007.367, 2371.752 1001 C 2382.626 980.824, 2391 963.971, 2391 962.263 C 2391 961.136, 2390.259 959.929, 2389.352 959.582 C 2386.356 958.432, 2373.528 957.954, 2372 958.936 M 2450.722 959.282 C 2448.913 963.995, 2454.353 977.511, 2463.489 991 C 2468.155 997.891, 2473.023 1007.419, 2474.216 1012 C 2479.678 1032.969, 2482 1057.122, 2482 1092.980 C 2482 1123.829, 2480.932 1120.740, 2492.562 1123.539 C 2505.089 1126.554, 2550.329 1126.458, 2581.677 1123.351 L 2587.854 1122.739 2589.881 1117.119 C 2593.596 1106.821, 2594.409 1097.698, 2592.614 1086.463 C 2590.092 1070.683, 2584.347 1056.496, 2574.304 1041.246 C 2556.028 1013.494, 2527.183 987.568, 2496.928 971.702 C 2477.881 961.713, 2452.416 954.868, 2450.722 959.282 M 2739.997 964.605 C 2735.874 967.688, 2730.025 971.348, 2727 972.739 C 2723.975 974.130, 2720.825 975.654, 2720 976.125 C 2705.247 984.552, 2681.017 991.927, 2660.985 994.089 C 2655.218 994.711, 2649.792 995.594, 2648.926 996.051 C 2640.835 1000.322, 2637.162 1076.258, 2640.029 1180 C 2640.614 1201.175, 2641.347 1228.085, 2641.659 1239.801 C 2642.216 1260.767, 2642.262 1261.125, 2644.576 1262.642 C 2649.307 1265.742, 2663.856 1268.041, 2682.500 1268.636 C 2705.449 1269.368, 2745.654 1266.746, 2748.038 1264.362 C 2748.522 1263.878, 2749.724 1260.561, 2750.709 1256.991 C 2752.249 1251.409, 2752.473 1246.788, 2752.308 1224 C 2752.202 1209.425, 2751.838 1143.838, 2751.499 1078.250 C 2750.924 967.094, 2750.767 959, 2749.188 959 C 2748.256 959, 2744.120 961.522, 2739.997 964.605 M 1558.630 962.250 C 1557.499 966.472, 1558.008 967.768, 1567.817 985.627 C 1573.217 995.457, 1580.040 1008, 1582.981 1013.500 C 1585.921 1019, 1591.628 1029.478, 1595.663 1036.784 C 1599.698 1044.089, 1603 1050.227, 1603 1050.423 C 1603 1050.620, 1606.072 1056.342, 1609.826 1063.140 C 1613.580 1069.938, 1619.054 1080, 1621.989 1085.500 C 1624.925 1091, 1630.628 1101.478, 1634.663 1108.784 C 1638.698 1116.089, 1642 1122.286, 1642 1122.553 C 1642 1122.821, 1643.047 1124.718, 1644.327 1126.770 C 1645.607 1128.821, 1649.279 1135.450, 1652.487 1141.500 C 1655.696 1147.550, 1661.398 1158.081, 1665.160 1164.903 C 1668.922 1171.725, 1672 1177.447, 1672 1177.619 C 1672 1177.792, 1675.302 1183.911, 1679.337 1191.216 C 1683.372 1198.522, 1689.074 1209, 1692.009 1214.500 C 1694.944 1220, 1700.642 1230.463, 1704.672 1237.751 C 1708.703 1245.039, 1712 1251.235, 1712 1251.521 C 1712 1251.806, 1713.146 1253.855, 1714.546 1256.073 C 1716.983 1259.933, 1717.288 1260.093, 1721.672 1259.803 L 1726.252 1259.500 1733.446 1247.500 C 1737.402 1240.900, 1748.640 1222, 1758.419 1205.500 L 1776.198 1175.500 1736.923 1097.500 C 1715.322 1054.600, 1691.057 1006.450, 1683.001 990.500 L 1668.354 961.500 1649.927 960.878 C 1639.792 960.535, 1615.240 960.198, 1595.367 960.128 L 1559.233 960 1558.630 962.250 M 2844.200 961.200 C 2842.605 962.795, 2842.443 1260.090, 2844.035 1263.066 C 2845.038 1264.939, 2846.669 1265, 2895.835 1265 C 2933.986 1265, 2946.898 1264.702, 2947.800 1263.800 C 2949.316 1262.284, 2949.505 1141.297, 2948.017 1124.559 C 2945.476 1095.968, 2944.845 1089.889, 2943.551 1081.500 C 2935.712 1030.688, 2917.408 995.962, 2888.342 976.755 C 2879.127 970.665, 2871.311 966.872, 2860.267 963.129 C 2850.408 959.788, 2846.126 959.274, 2844.200 961.200 M 1405.557 968.223 C 1404.701 969.445, 1404 970.815, 1404 971.268 C 1404 973.927, 1392.020 989.147, 1382.081 999.115 C 1366.443 1014.798, 1348.940 1026.203, 1332.500 1031.422 C 1327.391 1033.044, 1323.395 1037.538, 1324.637 1040.266 C 1324.946 1040.945, 1336.741 1049.150, 1350.849 1058.500 L 1376.500 1075.500 1392.886 1093.500 C 1401.898 1103.400, 1410.037 1111.634, 1410.974 1111.798 C 1412.530 1112.071, 1412.733 1109.717, 1413.336 1084.298 C 1413.699 1069.009, 1413.997 1036.864, 1413.998 1012.865 L 1414 969.230 1411.535 967.615 C 1408.284 965.484, 1407.413 965.573, 1405.557 968.223 M 1474.194 1137.799 C 1430.071 1201.837, 1406.709 1229.294, 1378 1250.856 C 1368.984 1257.628, 1368.911 1257.717, 1369.239 1261.500 L 1369.500 1264.500 1426.272 1264.758 L 1483.043 1265.017 1484.116 1262.258 C 1486.134 1257.072, 1487.999 1242.507, 1488.632 1227 C 1489.205 1212.963, 1487.943 1164.339, 1486.367 1139.750 L 1485.742 1130 1482.621 1130.049 C 1479.876 1130.093, 1478.862 1131.025, 1474.194 1137.799 M 3255.826 1160.250 C 3249.687 1167.892, 3245.493 1174.220, 3233.583 1193.815 C 3227.126 1204.438, 3219.744 1216.138, 3217.180 1219.815 C 3210.678 1229.136, 3198.588 1241.610, 3191.733 1246.070 C 3185.975 1249.816, 3177 1258.832, 3177 1260.871 C 3177 1267.099, 3215.794 1269.423, 3296.053 1268.001 C 3324.407 1267.499, 3348.482 1266.759, 3349.553 1266.356 C 3351.786 1265.517, 3353.922 1263.064, 3353.968 1261.286 C 3354.013 1259.588, 3337.224 1242.774, 3320 1227.266 C 3289.142 1199.483, 3279.200 1186.675, 3269.165 1161.778 C 3268.221 1159.435, 3262.771 1156, 3259.998 1156 C 3259.582 1156, 3257.704 1157.912, 3255.826 1160.250" stroke="none" fill="#fcfcfc" fill-rule="evenodd"/></svg>